<?xml version="1.0" encoding="UTF-8" standalone="no"?>
<!-- Created with Inkscape (http://www.inkscape.org/) -->

<svg
   width="660"
   height="960"
   viewBox="0 0 174.625 254"
   version="1.1"
   id="bugjar"
   sodipodi:docname="bugjar-logo-white.svg"
   inkscape:version="1.2.2 (732a01da63, 2022-12-09)"
   xmlns:inkscape="http://www.inkscape.org/namespaces/inkscape"
   xmlns:sodipodi="http://sodipodi.sourceforge.net/DTD/sodipodi-0.dtd"
   xmlns="http://www.w3.org/2000/svg"
   xmlns:svg="http://www.w3.org/2000/svg">
  <sodipodi:namedview
     id="namedview23"
     pagecolor="#000000"
     bordercolor="#000000"
     borderopacity="0.25"
     inkscape:showpageshadow="2"
     inkscape:pageopacity="0"
     inkscape:pagecheckerboard="0"
     inkscape:deskcolor="#d1d1d1"
     showgrid="false"
     inkscape:zoom="0.49166667"
     inkscape:cx="252.20339"
     inkscape:cy="446.44068"
     inkscape:window-width="1920"
     inkscape:window-height="991"
     inkscape:window-x="-9"
     inkscape:window-y="-9"
     inkscape:window-maximized="1"
     inkscape:current-layer="layer1" />
  <defs
     id="defs10493" />
  <g
     id="layer1"
     transform="matrix(0.80386232,0,0,0.80386232,0,48.223801)">
    <g
       id="g14843"
       transform="matrix(1.2300167,0,0,1.2300167,-486.53566,333.27683)"
       style="fill:none">
      <path
         style="fill:none;stroke:#ffffff;stroke-width:6.55232;stroke-dasharray:none;stroke-opacity:1"
         d="m 424.99087,-310.29556 v 17.29166 a 8.9324647,8.9643476 0 0 1 -2.61626,6.33875 l -19.84652,19.91735 a 12.632075,12.677164 0 0 0 -3.69985,8.96411 v 160.314428 a 31.243046,31.354563 0 0 0 31.24305,31.354563 h 107.57096 c 17.25506,0 31.24294,-11.755231 31.24294,-26.256043 -10e-6,-14.425538 1e-5,-55.567438 1e-4,-165.413048 0,-2.90002 -1.65647,-6.91334 -3.69985,-8.96401 l -19.84651,-19.91735 a 8.932467,8.96435 0 0 1 -2.61626,-6.33875 v -17.29166 a 5.2325285,5.2512052 0 0 0 -5.23253,-5.2512 H 430.2234 a 5.2325285,5.2512052 0 0 0 -5.23253,5.2512 z"
         id="rect14721" />
      <path
         style="fill:none;fill-opacity:1;stroke:#ffffff;stroke-width:6.61458;stroke-linecap:round;stroke-dasharray:none;stroke-opacity:1"
         d="m 420.68749,-304.27083 h 42.33334"
         id="path14826" />
      <path
         style="fill:none;fill-opacity:1;stroke:#ffffff;stroke-width:6.61458;stroke-linecap:round;stroke-dasharray:none;stroke-opacity:1"
         d="m 476.24999,-304.27083 h 68.79167"
         id="path14828" />
      <path
         style="fill:none;fill-opacity:1;stroke:#ffffff;stroke-width:6.61458;stroke-linecap:round;stroke-dasharray:none;stroke-opacity:1"
         d="M 428.62499,-291.04166 H 537.10416"
         id="path14830" />
      <path
         style="fill:none;fill-opacity:1;stroke:#ffffff;stroke-width:6.61458;stroke-linecap:round;stroke-dasharray:none;stroke-opacity:1"
         d="M 423.33333,-251.35416 V -150.8125"
         id="path14832" />
      <path
         style="fill:none;fill-opacity:1;stroke:#ffffff;stroke-width:6.61458;stroke-linecap:round;stroke-dasharray:none;stroke-opacity:1"
         d="M 423.33333,-137.58333 V -111.125"
         id="path14834" />
    </g>
    <path
       style="fill:none;fill-opacity:1;stroke:#000000;stroke-width:0.264583;stroke-linecap:round;stroke-dasharray:none"
       d="M 1108.6042,-13.229167 V -396.875"
       id="path14935" />
    <g
       id="g14952"
       style="fill:none;stroke-width:8.92024;stroke-dasharray:none"
       transform="matrix(0.36483552,0,0,0.36483552,-297.06233,160.07555)">
      <path
         id="path14845"
         style="stroke:#ffffff;stroke-width:22.3006;stroke-linecap:round"
         d="m 1198.5193,-171.97917 a 89.936821,145.52083 0 0 1 -89.9368,145.520826 89.936821,145.52083 0 0 1 -89.9368,-145.520826 89.936821,145.52083 0 0 1 89.9368,-145.52083 89.936821,145.52083 0 0 1 89.9368,145.52083 z" />
      <path
         style="fill:none;fill-opacity:1;stroke:#ffffff;stroke-width:22.3006;stroke-linecap:round;stroke-dasharray:none;stroke-opacity:1"
         d="m 1031.875,-251.35416 -66.14585,-26.45834 v -26.45833"
         id="path14917" />
      <path
         style="fill:none;fill-opacity:1;stroke:#ffffff;stroke-width:22.3006;stroke-linecap:round;stroke-dasharray:none;stroke-opacity:1"
         d="m 1018.6458,-185.20833 h -66.14581 l -13.22917,-26.45833"
         id="path14921" />
      <path
         style="fill:none;fill-opacity:1;stroke:#ffffff;stroke-width:22.3006;stroke-linecap:round;stroke-dasharray:none;stroke-opacity:1"
         d="m 1023.9375,-119.0625 -66.14585,26.458334 v 26.458333"
         id="path14923" />
      <path
         style="fill:none;fill-opacity:1;stroke:#ffffff;stroke-width:22.3006;stroke-linecap:round;stroke-dasharray:none;stroke-opacity:1"
         d="m 1185.3333,-251.35416 66.1458,-26.45834 v -26.45833"
         id="path14927" />
      <path
         style="fill:none;fill-opacity:1;stroke:#ffffff;stroke-width:22.3006;stroke-linecap:round;stroke-dasharray:none;stroke-opacity:1"
         d="m 1198.5625,-185.20833 h 66.1458 l 13.2291,-26.45833"
         id="path14929" />
      <path
         style="fill:none;fill-opacity:1;stroke:#ffffff;stroke-width:22.3006;stroke-linecap:round;stroke-dasharray:none;stroke-opacity:1"
         d="m 1193.2708,-119.0625 66.1458,26.458334 v 26.458333"
         id="path14931" />
      <path
         style="fill:none;fill-opacity:1;stroke:#ffffff;stroke-width:22.3006;stroke-linecap:round;stroke-dasharray:none;stroke-opacity:1"
         d="m 1058.3333,-52.916666 50.2709,-26.458333 50.2708,26.458333"
         id="path14933" />
      <path
         style="fill:none;fill-opacity:1;stroke:#ffffff;stroke-width:22.3006;stroke-linecap:round;stroke-dasharray:none;stroke-opacity:1"
         d="m 1042.4583,-267.22916 v 10e-6 A 45.167314,45.167314 22.499957 0 0 1074.3964,-254 h 68.4155 a 45.167262,45.167262 157.50002 0 0 31.9381,-13.22916 l 1.1855,-1.18552"
         id="path14941" />
    </g>
  </g>
</svg>
