<?xml version="1.0" encoding="UTF-8" standalone="no"?>
<svg
   viewBox="0 0 100 100"
   version="1.1"
   id="clean-code"
   sodipodi:docname="code-braces.svg"
   width="100"
   height="100"
   inkscape:version="1.2.2 (732a01da63, 2022-12-09)"
   xmlns:inkscape="http://www.inkscape.org/namespaces/inkscape"
   xmlns:sodipodi="http://sodipodi.sourceforge.net/DTD/sodipodi-0.dtd"
   xmlns="http://www.w3.org/2000/svg"
   xmlns:svg="http://www.w3.org/2000/svg">
  <defs
     id="defs8" />
  <sodipodi:namedview
     id="namedview6"
     pagecolor="#ffffff"
     bordercolor="#000000"
     borderopacity="0.25"
     inkscape:showpageshadow="2"
     inkscape:pageopacity="0.0"
     inkscape:pagecheckerboard="0"
     inkscape:deskcolor="#d1d1d1"
     showgrid="false"
     inkscape:zoom="6.9532167"
     inkscape:cx="15.820016"
     inkscape:cy="37.608493"
     inkscape:window-width="1920"
     inkscape:window-height="991"
     inkscape:window-x="-9"
     inkscape:window-y="-9"
     inkscape:window-maximized="1"
     inkscape:current-layer="g3175" />
  <circle
     style="fill:#840ece;fill-opacity:1;stroke:#060606;stroke-width:0;stroke-linecap:round;stroke-dasharray:none;stroke-opacity:1"
     id="path1694"
     cx="50"
     cy="50"
     r="50" />
  <g
     id="g3175">
    <path
       d="m 34.919021,21.559322 a 7.5404898,6.3201508 0 0 0 -7.54049,6.32015 v 12.640303 a 7.5404898,6.3201508 0 0 1 -7.540489,6.32015 h -3.770246 v 6.320151 h 3.770246 a 7.5404898,6.3201508 0 0 1 7.540489,6.320151 v 12.640301 a 7.5404898,6.3201508 0 0 0 7.54049,6.32015 h 7.54049 v -6.32015 h -7.54049 V 56.320152 A 7.5404898,6.3201508 0 0 0 27.378531,50 7.5404898,6.3201508 0 0 0 34.919021,43.67985 V 27.879472 h 7.54049 v -6.32015 m 22.621469,0 a 7.5404898,6.3201508 0 0 1 7.54049,6.32015 v 12.640303 a 7.5404898,6.3201508 0 0 0 7.54049,6.32015 h 3.770244 v 6.320151 H 80.16196 a 7.5404898,6.3201508 0 0 0 -7.54049,6.320151 v 12.640301 a 7.5404898,6.3201508 0 0 1 -7.54049,6.32015 h -7.540489 v -6.32015 H 65.08098 V 56.320152 A 7.5404898,6.3201508 0 0 1 72.62147,50 7.5404898,6.3201508 0 0 1 65.08098,43.679849 V 27.879472 h -7.540489 v -6.32015 z"
       id="path2"
       style="fill:#d2d2d1;fill-opacity:1;stroke:none;stroke-width:3.45171;stroke-opacity:1" />
    <path
       id="path343"
       style="fill:#d2d2d1;fill-opacity:1;stroke:#d2d2d1;stroke-width:7.556;stroke-linecap:round;stroke-dasharray:none;stroke-opacity:1"
       d="m 44.623926,53.092076 -0.208375,-0.380975 -0.380976,-0.208375 0.380976,-0.208376 0.208375,-0.380972 0.208376,0.380972 0.380975,0.208376 -0.380975,0.208375 z" />
    <path
       id="path900"
       style="fill:#d2d2d1;fill-opacity:1;stroke:#d2d2d1;stroke-width:5.08987;stroke-linecap:round;stroke-dasharray:none;stroke-opacity:1"
       d="m 57.456023,38.737439 -0.140369,-0.256608 -0.256605,-0.140354 0.256605,-0.140354 0.140369,-0.256605 0.14037,0.256605 0.256603,0.140354 -0.256603,0.140354 z" />
  </g>
</svg>
