<?xml version="1.0" encoding="UTF-8" standalone="no"?>
<svg
   viewBox="0 0 100 100"
   version="1.1"
   id="responsive"
   sodipodi:docname="responsive.svg"
   width="100"
   height="100"
   inkscape:version="1.2.2 (732a01da63, 2022-12-09)"
   xmlns:inkscape="http://www.inkscape.org/namespaces/inkscape"
   xmlns:sodipodi="http://sodipodi.sourceforge.net/DTD/sodipodi-0.dtd"
   xmlns="http://www.w3.org/2000/svg"
   xmlns:svg="http://www.w3.org/2000/svg">
  <sodipodi:namedview
     id="namedview6"
     pagecolor="#ffffff"
     bordercolor="#000000"
     borderopacity="0.25"
     inkscape:showpageshadow="2"
     inkscape:pageopacity="0.0"
     inkscape:pagecheckerboard="0"
     inkscape:deskcolor="#d1d1d1"
     showgrid="false"
     inkscape:zoom="4.9166667"
     inkscape:cx="19.728814"
     inkscape:cy="61.322034"
     inkscape:window-width="1920"
     inkscape:window-height="991"
     inkscape:window-x="-9"
     inkscape:window-y="-9"
     inkscape:window-maximized="1"
     inkscape:current-layer="svg4" />
  <defs
     id="defs8" />
  <circle
     style="fill:#840ece;stroke:#ffffff;stroke-width:0;stroke-linecap:round"
     id="path289"
     cx="50"
     cy="50"
     r="50" />
  <path
     d="m 29.367232,31.946328 v 25.79096 h 12.89548 V 47.420905 a 5.158192,5.158192 0 0 1 5.158192,-5.158193 h 12.89548 a 5.158192,5.158192 0 0 1 5.158192,5.158193 v 10.316383 h 5.158191 V 31.946328 H 29.367232 M 19.050847,68.053673 V 62.89548 h 10.316385 a 5.158192,5.158192 0 0 1 -5.158193,-5.158192 v -25.79096 a 5.158192,5.158192 0 0 1 5.158193,-5.158192 h 41.265535 a 5.158192,5.158192 0 0 1 5.158193,5.158192 v 25.79096 a 5.158192,5.158192 0 0 1 -5.158193,5.158192 h 10.316385 v 5.158193 H 65.474576 v 0 c 0,2.862797 -2.321187,5.158192 -5.158192,5.158192 h -12.89548 a 5.158192,5.158192 0 0 1 -5.158192,-5.158192 v 0 H 19.050847 m 29.659605,0 a 1.289548,1.289548 0 0 0 -1.289548,1.289548 1.289548,1.289548 0 0 0 1.289548,1.289548 A 1.289548,1.289548 0 0 0 50,69.343221 1.289548,1.289548 0 0 0 48.710452,68.053673 m 10.316383,0 a 1.289548,1.289548 0 0 0 -1.289548,1.289548 1.289548,1.289548 0 0 0 1.289548,1.289548 1.289548,1.289548 0 0 0 1.289549,-1.289548 1.289548,1.289548 0 0 0 -1.289549,-1.289548 m -6.44774,0 v 2.579096 h 2.579097 V 68.053673 H 52.579095 M 47.420904,47.420905 v 18.053672 h 12.89548 V 47.420905 Z"
     id="path2"
     style="stroke-width:2.5791;fill:#d2d2d1;fill-opacity:1" />
</svg>
