<?xml version="1.0" encoding="UTF-8" standalone="no"?>
<svg
   viewBox="0 0 100 100"
   version="1.1"
   id="features"
   sodipodi:docname="features.svg"
   width="100"
   height="100"
   inkscape:version="1.2.2 (732a01da63, 2022-12-09)"
   xmlns:inkscape="http://www.inkscape.org/namespaces/inkscape"
   xmlns:sodipodi="http://sodipodi.sourceforge.net/DTD/sodipodi-0.dtd"
   xmlns="http://www.w3.org/2000/svg"
   xmlns:svg="http://www.w3.org/2000/svg">
   <defs
      id="defs1273" />
   <sodipodi:namedview
      id="namedview1271"
      pagecolor="#ffffff"
      bordercolor="#000000"
      borderopacity="0.25"
      inkscape:showpageshadow="2"
      inkscape:pageopacity="0.0"
      inkscape:pagecheckerboard="0"
      inkscape:deskcolor="#d1d1d1"
      showgrid="false"
      inkscape:zoom="4.9166667"
      inkscape:cx="30.508475"
      inkscape:cy="46.677966"
      inkscape:window-width="1920"
      inkscape:window-height="991"
      inkscape:window-x="-9"
      inkscape:window-y="-9"
      inkscape:window-maximized="1"
      inkscape:current-layer="svg1269" />
   <circle
      style="fill:#840ece;stroke:#ffffff;stroke-width:0;stroke-linecap:round;fill-opacity:1"
      id="path1444"
      cx="50"
      cy="50"
      r="50" />
   <path
      d="m 50,27 c -13.863637,0 -25.703181,7.947777 -30.5,19.166666 4.796819,11.21889 16.636363,19.166667 30.5,19.166667 0.998182,0 1.996363,0 2.994545,-0.127777 -0.138636,-0.817778 -0.221818,-1.610001 -0.221818,-2.427779 0,-0.919999 0.110908,-1.839999 0.277273,-2.759999 -0.998182,0.102221 -2.024092,0.204445 -3.05,0.204445 -10.425455,0 -19.880454,-5.46889 -24.455454,-14.055557 C 30.119546,37.58 39.574545,32.111111 50,32.111111 c 10.425454,0 19.880454,5.468889 24.455454,14.055555 -0.332727,0.613334 -0.720909,1.15 -1.081363,1.737778 1.83,0.40889 3.576817,1.09889 5.157273,2.095556 C 79.28,48.722222 79.945454,47.444444 80.5,46.166666 75.703181,34.947777 63.863636,27 50,27 m 0,11.499999 A 8.3181818,7.6666667 0 0 0 41.681818,46.166666 8.3181818,7.6666667 0 0 0 50,53.833334 8.3181818,7.6666667 0 0 0 58.318182,46.166666 8.3181818,7.6666667 0 0 0 50,38.499999 m 16.636363,14.055557 v 7.666667 h -8.318181 v 5.11111 h 8.318181 V 73 h 5.545455 V 65.333333 H 80.5 v -5.11111 h -8.318182 v -7.666667 z"
      id="path1267"
      style="stroke-width:2.66192;fill:#d2d2d1;fill-opacity:1" />
</svg>